<?xml version="1.0" encoding="utf-8"?>
<!-- Generator: Adobe Illustrator 27.5.0, SVG Export Plug-In . SVG Version: 6.00 Build 0)  -->
<svg version="1.1" xmlns="http://www.w3.org/2000/svg" xmlns:xlink="http://www.w3.org/1999/xlink" x="0px" y="0px"
	 viewBox="0 0 750 500" style="enable-background:new 0 0 750 500;" xml:space="preserve">
<g id="BACKGROUND">
	<rect style="fill:#FFFFFF;" width="750" height="500"/>
</g>
<g id="OBJECTS">
	<path style="fill:#F2F2F2;" d="M363.077,378.389c-52.873,0-114.412-15.614-156.742-47.296
		c-22.877-17.122-43.668-40.175-54.57-70.809C119.06,168.384,173.446,86.439,270.041,82.081
		c96.595-4.359,154.183,106.302,258.331,110.686c104.148,4.385,88.821,113.69,49.836,144.243
		C549.307,359.66,458.542,378.389,363.077,378.389z"/>
	<g>
		<polygon style="fill:#E0E0E0;" points="577.695,389.153 184.642,389.153 184.642,367.626 578.209,367.626 		"/>
		<polygon style="fill:#E0E0E0;" points="152.974,358.016 220.496,268.355 545.794,268.355 605.102,358.016 164.437,371.007 		"/>
		<rect x="151.765" y="358.016" style="fill:#B2B2B2;" width="452.127" height="12.991"/>
	</g>
	<g>
		<path style="fill:#455A64;" d="M428.172,323.247c-3.14-4.179-8.063-6.638-13.29-6.638h-46.598h-70.5h-46.598
			c-5.227,0-10.15,2.459-13.29,6.638l-15.798,21.026h75.685h70.5h75.685L428.172,323.247z"/>
		<path style="fill:#263238;" d="M439.424,350.884H226.645c-2.51,0-4.546-2.035-4.546-4.546v-2.064H443.97v2.064
			C443.97,348.849,441.935,350.884,439.424,350.884z"/>
		<path style="fill:#263238;" d="M420.885,338.013l-3.009-4.278h9.403v-1.137h-10.202l-3.009-4.278h8.694v-1.136h-9.493l-3.01-4.279
			h10.329v-1.137H246.538v1.137h10.33l-3.01,4.279h-10.896v1.136h10.097l-3.009,4.278h-11.588v1.137h10.788l-3.009,4.278H233.58
			v1.136h197.922v-1.136H420.885z M419.495,338.013h-13.324l-2.268-4.278h12.583L419.495,338.013z M291.534,328.319h10.897
			l-1.549,4.278h-11.151L291.534,328.319z M288.497,332.598h-11.619l2.268-4.278H290.3L288.497,332.598z M303.64,328.319h10.555
			l-1.549,4.278h-10.555L303.64,328.319z M315.404,328.319h10.66l-0.559,4.278h-11.65L315.404,328.319z M327.209,328.319h10.85
			l0.559,4.278H326.65L327.209,328.319z M339.205,328.319h12.52l1.549,4.278h-13.51L339.205,328.319z M352.933,328.319h10.555
			l1.549,4.278h-10.555L352.933,328.319z M364.697,328.319h10.898l1.803,4.278h-11.151L364.697,328.319z M376.828,328.319h11.154
			l2.268,4.278h-11.62L376.828,328.319z M389.269,328.319h10.478l2.268,4.278h-10.478L389.269,328.319z M388.666,327.183
			l-2.269-4.279h10.478l2.269,4.279H388.666z M387.38,327.183h-11.031l-1.803-4.279h10.565L387.38,327.183z M375.116,327.183h-10.83
			l-1.549-4.279h10.576L375.116,327.183z M363.077,327.183h-10.555l-1.549-4.279h10.555L363.077,327.183z M351.313,327.183h-12.257
			l-0.559-4.279h11.266L351.313,327.183z M337.911,327.183h-10.553l0.559-4.279h9.436L337.911,327.183z M326.212,327.183h-10.397
			l1.549-4.279h9.406L326.212,327.183z M314.607,327.183h-10.555l1.549-4.279h10.555L314.607,327.183z M302.843,327.183h-10.83
			l1.803-4.279h10.576L302.843,327.183z M290.779,327.183h-11.03l2.268-4.279h10.565L290.779,327.183z M278.462,327.183h-10.477
			l2.268-4.279h10.477L278.462,327.183z M277.859,328.319l-2.268,4.278h-10.477l2.268-4.278H277.859z M274.989,333.734l-2.268,4.278
			h-10.477l2.268-4.278H274.989z M276.276,333.734h11.743l-1.803,4.278h-12.208L276.276,333.734z M289.253,333.734h11.218
			l-1.549,4.278H287.45L289.253,333.734z M301.679,333.734h10.555l-1.549,4.278H300.13L301.679,333.734z M313.443,333.734h11.913
			l-0.559,4.278h-12.904L313.443,333.734z M326.502,333.734h12.264l0.559,4.278h-13.382L326.502,333.734z M339.912,333.734h13.773
			l1.549,4.278H340.47L339.912,333.734z M354.894,333.734h10.555l1.549,4.278h-10.555L354.894,333.734z M366.658,333.734h11.219
			l1.803,4.278h-11.472L366.658,333.734z M379.11,333.734h11.743l2.268,4.278h-12.209L379.11,333.734z M392.139,333.734h10.478
			l2.268,4.278h-10.478L392.139,333.734z M415.687,332.598h-12.387l-2.268-4.278h11.646L415.687,332.598z M411.879,327.183H400.43
			l-2.269-4.279h10.708L411.879,327.183z M258.258,322.904h10.708l-2.268,4.279h-11.449L258.258,322.904z M254.45,328.319h11.646
			l-2.268,4.278h-12.386L254.45,328.319z M250.642,333.734h12.583l-2.268,4.278h-13.324L250.642,333.734z"/>
	</g>
	<g>
		<path style="fill:#263238;" d="M461.898,322.116c-5.241-5.032-4.003-13.55,2.368-17.043c3.708-2.032,9.138-3.407,16.604-1.643
			c16.486,3.896,15.935,19.128,10.358,23.442C484.839,331.817,469.415,329.335,461.898,322.116z"/>
		<path style="fill:#455A64;" d="M491.228,326.873c2.013-1.558,3.365-4.541,3.503-7.898c-3.125,2.561-9.668,7.177-22.312,3.664
			c-7.978-2.216-11.763-6.54-13.57-10.236c-0.679,3.371,0.258,7.035,3.048,9.714C469.415,329.334,484.839,331.817,491.228,326.873z"
			/>
		<path style="fill:#455A64;" d="M467.562,307.004c-0.847-0.258-0.968-1.406-0.192-1.832c1.29-0.708,3.292-1.324,5.883-0.641
			c2.437,0.643,3.466,2.043,3.889,3.264c0.341,0.985-0.636,1.928-1.634,1.624L467.562,307.004z"/>
	</g>
	<g>
		<polygon style="fill:#2D3F44;" points="381.108,281.98 334.358,281.98 287.607,281.98 275.746,302.471 284.309,308.143 
			334.358,308.143 384.407,308.143 392.969,302.471 		"/>
		<rect x="275.747" y="302.471" style="fill:#455A64;" width="117.223" height="11.344"/>
		<rect x="294.751" y="279.707" style="fill:#263238;" width="79.214" height="15.697"/>
		<path style="fill:#455A64;" d="M452.898,286.35h-237.08c-3.118,0-5.645-2.527-5.645-5.645v-143c0-3.117,2.527-5.645,5.645-5.645
			h237.08c3.117,0,5.645,2.527,5.645,5.645v143C458.542,283.822,456.015,286.35,452.898,286.35z"/>
		<path style="fill:#263238;" d="M337.049,136.681c0,1.486-1.205,2.691-2.691,2.691c-1.487,0-2.692-1.205-2.692-2.691
			c0-1.486,1.205-2.692,2.692-2.692C335.844,133.989,337.049,135.194,337.049,136.681z"/>
		<path style="fill:#A285E0;" d="M442.108,271.514H226.607c-3.117,0-5.645-2.527-5.645-5.645V147.74
			c0-3.117,2.527-5.645,5.645-5.645h215.501c3.118,0,5.645,2.527,5.645,5.645v118.13
			C447.753,268.987,445.226,271.514,442.108,271.514z"/>
		<path style="fill:#FFFFFF;" d="M442.108,142.095H334.358v129.419h107.751c3.118,0,5.645-2.527,5.645-5.645V147.74
			C447.753,144.622,445.226,142.095,442.108,142.095z"/>
		<g>
			<path style="fill:#A285E0;" d="M432.009,150.554h-86.421c-1.001,0-1.813,0.812-1.813,1.813v6.26v3.797v4.277l0,0
				c0,3.253,3.933,4.882,6.234,2.582l2.051-2.051c0.34-0.34,0.801-0.531,1.282-0.531h78.667c1.001,0,1.813-0.812,1.813-1.813
				v-12.521C433.822,151.365,433.01,150.554,432.009,150.554z"/>
			<path style="fill:#A285E0;" d="M432.009,173.559h-86.421c-1.001,0-1.813,0.812-1.813,1.813v6.26v3.797v4.277l0,0
				c0,3.253,3.933,4.882,6.234,2.582l2.051-2.051c0.34-0.34,0.801-0.531,1.282-0.531h78.667c1.001,0,1.813-0.812,1.813-1.813
				v-12.521C433.822,174.371,433.01,173.559,432.009,173.559z"/>
			<path style="fill:#A285E0;" d="M432.009,220.957h-86.421c-1.001,0-1.813,0.812-1.813,1.813v6.261v3.796v4.277l0,0
				c0,3.253,3.933,4.882,6.234,2.582l2.051-2.051c0.34-0.34,0.801-0.531,1.282-0.531h78.667c1.001,0,1.813-0.812,1.813-1.813V222.77
				C433.822,221.769,433.01,220.957,432.009,220.957z"/>
			<path style="fill:#B2B2B2;" d="M345.588,196.901h86.421c1.001,0,1.813,0.812,1.813,1.813v6.26v3.797v4.277l0,0
				c0,3.253-3.933,4.882-6.233,2.582l-2.051-2.051c-0.34-0.34-0.801-0.531-1.282-0.531h-78.667c-1.001,0-1.813-0.812-1.813-1.813
				v-12.521C343.775,197.713,344.587,196.901,345.588,196.901z"/>
			<path style="fill:#E0E0E0;" d="M442.108,271.514c3.118,0,5.645-2.527,5.645-5.645v-18.887H334.358v24.532H442.108z"/>
		</g>
	</g>
	<g>
		<path style="fill:#FFBE9D;" d="M420.59,324.735c0,0-6.988-9.639-10.603-30.604c-3.615-20.965,0.482-20.483-4.097-33.014
			c-4.579-12.531-15.182-20.001-13.254-24.58c1.928-4.579,10.365-5.061,21.328,18.074c0,0,2.047-2.232-2.291-15.334
			c-4.338-13.102-12.581-16.525-8.451-20.931c3.373-3.597,9.781,3.935,9.781,3.935s-1.838-5.99,3.035-6.003
			c6.183-0.017,15.395,21.464,16.359,38.092c0,0,1.446-12.531,0-20.242c-1.446-7.711-2.538-10.44,0.643-12.29
			c3.684-2.142,9.324,9.34,8.968,32.258c0,0,5.572,1.738,7.017,14.26c1.446,12.522-5.783,25.776-5.783,25.776l1.246,25.785
			C444.488,319.916,428.543,331.242,420.59,324.735z"/>
		<path style="fill:#455A64;" d="M564.482,389.153h43.204l-4.217-78.909c-0.589-11.027-9.702-19.666-20.745-19.666l0,0
			c-12.103,0-21.644,10.306-20.713,22.373L564.482,389.153z"/>
		<path style="fill:#263238;" d="M589.774,291.83l4.296,97.323h13.615l-4.217-78.909
			C603.011,301.688,597.414,294.591,589.774,291.83z"/>
		<path style="fill:#FFBE9D;" d="M465.565,154.075c0,0-4.332,18.407-7.023,43.072c0,0-14.054,27.561-14.054,31.597
			c0,4.036,13.453,6.723,13.453,6.723s-2.722,31.313,8.041,41.179c10.763,9.866,34.562,6.583,34.562,6.583v43.051
			c0,0,25.113-8.521,49.329-39.015l1.837-18.909l6.684-21.451c0,0,21.974-38.118,21.974-39.464c0-1.345-51.123-60.989-51.123-60.989
			l-24.216-6.278l-13.005-2.242L465.565,154.075z"/>
		<path style="fill:#EA9773;" d="M500.544,283.228v18.732c32.85-11.382,32.85-42.812,32.85-42.812
			C514.566,278.565,500.544,283.228,500.544,283.228z"/>
		<path style="fill:#263238;" d="M493.751,147.434c0,0-40.446,20.431-53.372,10.424c-12.926-10.007,21.654-19.949,21.654-19.949
			s-23.322-0.482-18.735-10.49c4.587-10.007,39.612-9.59,39.612-9.59s2.085-19.181,32.524-18.347
			c30.439,0.834,40.863,21.682,40.863,21.682s11.258-12.509,29.605,5.004c18.347,17.513,27.52,53.372,17.93,77.139
			c-9.59,23.767-42.531,39.612-52.121,65.047l-3.753-26.269c0,0,14.594-4.587,14.594-26.686s-22.099-25.852-31.273-17.096
			c-5.416,5.17-6.617,11.939-6.692,16.617c-0.038,2.373-3.009,3.475-4.542,1.664c-2.678-3.163-5.643-8.805-6.696-18.698
			c-2.085-19.598,1.668-32.107,1.668-32.107S500.006,161.611,493.751,147.434z"/>
		<path style="fill:#7E57C2;" d="M566.693,324.136c-1.996-11.421-7.024-22.096-14.608-30.865l3.023-13.104
			c0.621-2.69-0.601-5.469-3.002-6.83l-0.832-0.472l-0.386,3.972l-39.869,9.121c-2.206,0.515-3.094,3.176-1.64,4.913l6.388,7.628
			c-8.039,4.398-15.222,7.905-15.222,7.905l-9.958,46.138L460.63,369.9c0,0-1.504-8.122-1.504-14.74
			c0-6.618,0.602-24.066-9.927-27.074l-2.283-10.276c-0.415-1.866-2.215-3.087-4.099-2.764c-4.337,0.743-12.642,2.482-23.657,6.252
			c-1.735,0.594-2.751,2.404-2.349,4.193l2.005,8.913c0,0-3.911,1.805-4.813,10.228c-0.903,8.423,14.439,39.708,16.545,52.644
			c2.106,12.935,11.13,23.464,24.066,20.155c12.935-3.309,62.872-28.277,62.872-28.277h55.351
			C572.837,389.153,572.249,355.932,566.693,324.136z"/>
		<polygon style="fill:#583D88;" points="537.495,298.347 552.084,293.271 553.8,285.833 		"/>
		<polygon style="fill:#583D88;" points="517.486,389.153 551.778,371.007 545.647,389.153 		"/>
		<polygon style="fill:#263238;" points="515.639,298.347 500.544,306.403 490.586,352.54 505.46,344.058 517.571,300.653 		"/>
		<path style="fill:#E0E0E0;" d="M517.107,302.317l-1.66,0.28c-1.845,0.34-3.332,1.708-3.824,3.518l-11.078,40.747l4.916-2.803
			L517.107,302.317z"/>
		<g>
			<path style="fill:#263238;" d="M547.506,224.49l-30.964,19.424c-1.798,1.128-4.171,0.585-5.299-1.214l-3.424-5.458
				c-1.128-1.798-0.585-4.171,1.214-5.299l30.964-19.424c1.798-1.128,4.171-0.585,5.299,1.214l3.424,5.458
				C549.847,220.989,549.304,223.362,547.506,224.49z"/>
			<path style="fill:#455A64;" d="M548.719,219.191l-3.424-5.458c-0.043-0.069-0.1-0.124-0.147-0.189l-37.712,22.861
				c0.095,0.287,0.215,0.57,0.383,0.837l3.424,5.458c1.128,1.798,3.501,2.342,5.299,1.214l30.964-19.424
				C549.304,223.362,549.847,220.989,548.719,219.191z"/>
		</g>
		<path style="fill:#263238;" d="M462.033,245.134c1.555,0.963,3.125,1.767,4.674,2.098c1.557,0.324,2.954,0.038,4.145-0.85
			c1.197-0.883,2.226-2.204,3.131-3.653c0.916-1.449,1.738-3.015,2.705-4.589c-0.053,1.843-0.423,3.655-1.109,5.396
			c-0.683,1.727-1.696,3.46-3.39,4.706c-0.84,0.611-1.876,1.058-2.956,1.161c-1.076,0.095-2.147-0.07-3.069-0.475
			C464.314,248.138,462.916,246.755,462.033,245.134z"/>
		<path style="fill:#263238;" d="M458.542,197.147c-1.557,3.917-3.264,7.745-4.994,11.556c-1.712,3.818-3.505,7.593-5.172,11.4
			c-0.851,1.89-1.683,3.803-2.354,5.708c-0.176,0.473-0.331,0.949-0.452,1.405c-0.065,0.232-0.119,0.457-0.145,0.655
			c-0.02,0.104-0.041,0.216-0.033,0.268l-0.006,0.101l-0.006,0.052c0,0,0.004-0.024,0.001-0.035
			c-0.005-0.027-0.024-0.051-0.051-0.064c-0.028-0.011,0.051,0.087,0.072,0.126l0.205,0.316c0.14,0.199,0.277,0.407,0.422,0.594
			c0.276,0.396,0.592,0.743,0.919,1.087c1.354,1.331,3.195,2.269,5.09,3.058c1.904,0.801,3.903,1.427,5.904,2.094
			c-2.103-0.169-4.19-0.503-6.263-1.027c-2.046-0.57-4.152-1.308-5.932-2.799c-0.431-0.377-0.855-0.776-1.219-1.21
			c-0.193-0.213-0.351-0.438-0.526-0.658l-0.241-0.331c-0.047-0.073-0.065-0.07-0.135-0.206c-0.07-0.137-0.131-0.286-0.178-0.436
			c-0.023-0.073-0.047-0.154-0.06-0.221l-0.01-0.145l-0.013-0.291c-0.013-0.21,0.009-0.358,0.027-0.513
			c0.028-0.324,0.084-0.611,0.145-0.888c0.119-0.564,0.264-1.092,0.426-1.611c0.658-2.07,1.487-4.01,2.32-5.954
			c1.737-3.849,3.628-7.603,5.675-11.273C453.995,204.229,456.148,200.618,458.542,197.147z"/>
		<path style="fill:#455A64;" d="M544.098,130.284c-7.126-3.054-14.467-5.627-21.97-7.305c-3.75-0.782-7.562-1.405-11.323-1.272
			c-1.872,0.069-3.73,0.304-5.453,0.857c-1.707,0.545-3.309,1.475-4.398,2.738l-0.393,0.465l-0.259,0.51
			c-0.234,0.323-0.21,0.704-0.336,1.048c-0.009,0.728,0.043,1.494,0.44,2.253c0.68,1.526,1.943,2.925,3.297,4.18
			c2.751,2.521,6.003,4.59,9.285,6.55c3.303,1.945,6.73,3.708,10.205,5.372c3.464,1.68,6.998,3.268,10.551,4.715l2.197,0.895
			l-2.182,0.91c-2.863,1.194-5.77,2.613-8.185,4.496c-1.162,0.937-2.313,2.085-2.544,3.305c-0.111,0.581,0.046,1.217,0.449,1.682
			c0.403,0.484,1.041,0.863,1.724,1.152c2.836,1.081,6.119,1.279,9.286,1.364c3.196,0.046,6.406-0.095,9.609-0.355
			c-3.169,0.552-6.374,0.904-9.601,1.045c-1.614,0.072-3.235,0.078-4.863-0.015c-1.627-0.109-3.269-0.297-4.886-0.878
			c-0.799-0.303-1.621-0.701-2.291-1.423c-0.687-0.725-1.011-1.778-0.875-2.784c0.125-1.006,0.621-1.823,1.148-2.522
			c0.541-0.699,1.158-1.293,1.798-1.84c2.602-2.146,5.48-3.678,8.501-5.025l0.015,1.804c-7.289-2.825-14.39-6.036-21.19-9.956
			c-3.389-1.971-6.703-4.129-9.665-6.865c-1.457-1.384-2.882-2.907-3.787-4.937c-0.496-0.98-0.665-2.206-0.565-3.398
			c0.163-0.575,0.232-1.209,0.561-1.7l0.428-0.772l0.548-0.642c1.486-1.647,3.409-2.655,5.387-3.257
			c1.983-0.6,4.017-0.799,6.015-0.801c4.005,0.006,7.901,0.733,11.686,1.723c3.788,0.994,7.476,2.281,11.078,3.757
			C537.141,126.826,540.685,128.434,544.098,130.284z"/>
		<path style="fill:#4B357C;" d="M460.63,369.9c7.252-4.678,14.577-9.23,21.973-13.656c7.381-4.454,14.828-8.793,22.288-13.109
			l11.236-6.394c1.895-1.036,3.719-2.135,5.726-3.122c1.986-0.972,4.065-1.756,6.197-2.335c4.26-1.168,8.741-1.55,13.111-0.862
			c2.172,0.395,4.314,1.098,6.18,2.283c1.892,1.141,3.397,2.835,4.436,4.718c-1.251-1.755-2.858-3.234-4.737-4.196
			c-1.868-0.988-3.945-1.489-6.032-1.701c-4.189-0.397-8.461,0.206-12.457,1.46c-2.001,0.641-3.942,1.457-5.808,2.415
			c-1.838,0.96-3.685,2.129-5.544,3.208l-11.177,6.497c-7.482,4.277-14.978,8.532-22.539,12.672
			C475.939,361.943,468.32,365.984,460.63,369.9z"/>
		<path style="fill:#4B357C;" d="M458.02,339.865c0.737,3.67,1.251,7.362,1.686,11.06c0.466,3.698,0.721,7.41,1.067,11.082
			c0.143,1.841,0.327,3.674,0.537,5.503c0.178,1.834,0.435,3.656,0.673,5.484c0.498,3.655,1.158,7.29,1.785,10.985
			c-1.532-3.418-2.692-7.003-3.529-10.661c-0.866-3.655-1.385-7.385-1.729-11.11c-0.305-3.733-0.463-7.445-0.567-11.159
			C457.842,347.332,457.819,343.609,458.02,339.865z"/>
		<path style="fill:#4B357C;" d="M449.199,328.086l-0.087-0.392c-0.434,0.203-0.869,0.416-1.301,0.608l-2.988-13.018
			c-0.384-0.165-0.8-0.258-1.23-0.279l3.159,13.762c-0.971,0.413-1.934,0.796-2.885,1.15l-3.318-14.455
			c-0.356,0.069-0.728,0.143-1.115,0.222l3.356,14.62c-1.131,0.399-2.244,0.76-3.336,1.084l-3.434-14.96
			c-0.362,0.084-0.727,0.169-1.107,0.26l3.446,15.014c-1.158,0.322-2.29,0.606-3.39,0.853l-3.445-15.011
			c-0.362,0.096-0.725,0.191-1.099,0.293l3.433,14.957c-1.189,0.246-2.341,0.454-3.442,0.624l-3.358-14.631
			c-0.358,0.105-0.725,0.216-1.091,0.326l3.321,14.47c-1.235,0.169-2.402,0.294-3.493,0.385l-3.172-13.816
			c-0.359,0.115-0.72,0.232-1.085,0.352l3.111,13.551c-1.258,0.083-2.389,0.119-3.388,0.128l-2.869-12.501
			c-0.378,0.242-0.7,0.547-0.959,0.901l2.662,11.6c-0.495-0.006-0.937-0.019-1.335-0.035l0.058,0.256c0,0-0.458,0.219-1.092,0.828
			c0.729,0.046,1.733,0.088,2.993,0.088c5.918,0,17.227-0.949,29.496-6.884C449.886,328.305,449.55,328.186,449.199,328.086z"/>
		<path style="fill:#EA9773;" d="M537.495,201.418c2.231-0.467,4.56-0.478,6.861-0.148c2.293,0.363,4.587,1.156,6.572,2.545
			c1.001,0.676,1.901,1.52,2.66,2.474c0.776,0.943,1.409,2,1.897,3.111c0.988,2.227,1.402,4.63,1.497,6.984
			c-0.002,0.588,0.027,1.181-0.01,1.765l-0.128,1.747c-0.042,1.165-0.251,2.327-0.486,3.482l-0.171,0.865l-0.266,0.85l-0.547,1.692
			c-0.51,1.081-0.941,2.2-1.678,3.163c-1.311,2.003-3.185,3.654-5.336,4.638c-2.15,0.971-4.521,1.386-6.782,1.07
			c4.542-0.355,8.594-2.911,10.614-6.648c0.266-0.46,0.539-0.912,0.708-1.426c0.196-0.497,0.417-0.981,0.604-1.48l0.42-1.558
			l0.207-0.778l0.117-0.806l0.256-1.604c0.097-0.532,0.08-1.088,0.126-1.63l0.095-1.636c0.028-0.545-0.014-1.083-0.014-1.625
			c-0.07-4.298-1.522-8.569-4.844-11.237C546.555,202.56,541.991,201.502,537.495,201.418z"/>
		<path style="fill:#EA9773;" d="M402.183,220.15c0.173-0.99,0.614-2.003,1.495-2.702c0.428-0.371,1.003-0.545,1.568-0.63
			c0.57-0.048,1.15,0.01,1.677,0.17c0.546,0.138,1.021,0.393,1.514,0.625c0.447,0.261,0.91,0.499,1.342,0.793
			c0.891,0.547,1.704,1.215,2.487,1.909c1.575,1.39,2.866,3.05,4.046,4.756c0.554,0.874,1.109,1.754,1.575,2.672
			c0.505,0.902,0.951,1.828,1.373,2.765c1.661,3.759,2.858,7.671,3.734,11.632c0.913,3.955,1.415,7.982,1.682,12.016
			c-1.199-3.87-2.179-7.757-3.396-11.56c-1.205-3.8-2.464-7.573-4.091-11.157c-1.587-3.592-3.527-7.029-6.155-9.858
			c-0.657-0.707-1.365-1.364-2.12-1.972c-0.758-0.619-1.539-1.221-2.355-1.574c-0.817-0.387-1.73-0.493-2.538-0.063
			C403.219,218.395,402.575,219.228,402.183,220.15z"/>
		<path style="fill:#EA9773;" d="M413.964,217.247c0.272-0.393,0.661-0.713,1.112-0.939c0.457-0.219,0.982-0.296,1.501-0.272
			c1.055,0.059,1.978,0.583,2.819,1.134c1.605,1.215,2.875,2.759,3.934,4.38c2.161,3.248,3.775,6.723,5.174,10.31
			c1.341,3.602,2.405,7.311,3.041,11.094c0.672,3.774,0.953,7.603,0.853,11.415c-0.843-3.724-1.606-7.413-2.586-11.034
			c-0.971-3.62-2.095-7.185-3.432-10.668c-0.637-1.754-1.373-3.469-2.121-5.18c-0.755-1.712-1.556-3.393-2.435-5.012
			c-0.879-1.621-1.873-3.183-3.137-4.45c-0.644-0.598-1.36-1.153-2.199-1.369C415.664,216.436,414.69,216.612,413.964,217.247z"/>
		<path style="fill:#EA9773;" d="M433.041,221.837c0.393-0.395,1.026-0.56,1.609-0.425c0.583,0.13,1.107,0.461,1.53,0.853
			c0.869,0.784,1.491,1.761,2.059,2.742c1.078,1.993,1.867,4.114,2.471,6.269c1.233,4.307,1.899,8.718,2.369,13.128
			c0.414,4.417,0.612,8.847,0.53,13.274c-0.07,4.424-0.37,8.847-1.059,13.221l-0.714-13.183c-0.278-4.375-0.57-8.742-1.017-13.087
			c-0.201-2.174-0.453-4.342-0.757-6.498c-0.258-2.166-0.661-4.3-1.066-6.429c-0.438-2.118-0.969-4.223-1.758-6.218
			c-0.393-0.993-0.861-1.961-1.505-2.781c-0.316-0.416-0.711-0.763-1.178-0.963C434.094,221.526,433.511,221.533,433.041,221.837z"
			/>
		<path style="fill:#EA9773;" d="M392.637,236.537c0.204-0.796,0.674-1.551,1.367-2.105c0.694-0.562,1.619-0.827,2.531-0.857
			c1.827,0.048,3.468,0.828,4.896,1.735c2.852,1.872,5.164,4.317,7.207,6.951c1.994,2.673,3.652,5.576,4.926,8.626
			c1.256,3.052,2.228,6.232,2.587,9.503c-1.272-3.019-2.674-5.917-4.186-8.737c-1.553-2.795-3.216-5.51-5.138-8.021
			c-0.93-1.278-1.958-2.478-3.028-3.636c-1.05-1.179-2.208-2.243-3.391-3.245c-1.211-0.943-2.52-1.794-3.95-2.068
			c-0.709-0.113-1.44-0.044-2.117,0.277C393.675,235.286,393.058,235.835,392.637,236.537z"/>
		<g>
			<circle style="fill:#263238;" cx="473.231" cy="203.893" r="3.525"/>
			<path style="fill:#263238;" d="M469.132,198.766c0.25-2.019,1.053-3.995,2.452-5.649c0.698-0.833,1.605-1.524,2.647-2.038
				c1.073-0.467,2.275-0.634,3.436-0.536c1.144,0.164,2.303,0.523,3.244,1.23c0.92,0.709,1.677,1.573,2.184,2.538
				c1.013,1.922,1.367,4.032,1.148,6.056c-0.711-1.891-1.537-3.661-2.636-5.094c-0.579-0.687-1.184-1.299-1.894-1.715
				c-0.695-0.435-1.482-0.635-2.286-0.759c-0.814-0.068-1.607,0.018-2.388,0.264c-0.778,0.274-1.5,0.751-2.211,1.304
				C471.44,195.533,470.253,197.086,469.132,198.766z"/>
			<path style="fill:#263238;" d="M469.716,180.989c4.353-0.237,11.627-0.05,20.688,2.395c1.899,0.512,3.481-1.587,2.711-3.544
				c-1.326-3.371-4.534-7.504-12.289-8.419c-6.702-0.792-10.763,2.386-13.051,5.377C466.468,178.507,467.675,181.1,469.716,180.989z
				"/>
		</g>
	</g>
	<g>
		<g>
			<path style="fill:#263238;" d="M324.96,271.514c-2.077-9.592-8.888-33.174-26.588-39.503h-16.065h-19.963
				c-16.26,7.601-21.448,29.604-22.988,39.503H324.96z"/>
			<g>
				<path style="fill:#455A64;" d="M256.504,240.577c0.396,2.443,0.837,4.88,1.463,7.287c-0.15-2.482-0.483-4.936-0.862-7.382
					c-0.25-1.537-0.523-3.07-0.843-4.596c-0.118,0.097-0.236,0.195-0.352,0.294C256.075,237.651,256.279,239.115,256.504,240.577z"
					/>
				<path style="fill:#455A64;" d="M309.716,239.525c-0.142-0.147-0.285-0.294-0.429-0.438c-0.198,0.938-0.372,1.88-0.535,2.824
					c-0.32,1.969-0.595,3.945-0.686,5.953c0.566-1.928,0.949-3.886,1.286-5.852C309.486,241.185,309.608,240.356,309.716,239.525z"
					/>
			</g>
			<path style="fill:#455A64;" d="M256.594,271.514c0.185-1.716,0.353-3.434,0.514-5.153c0.187-2.151,0.372-4.302,0.511-6.457
				l0.206-3.233c0.046-1.08,0.114-2.157,0.142-3.239c-0.166,1.069-0.292,2.141-0.439,3.212l-0.375,3.218
				c-0.249,2.145-0.45,4.295-0.651,6.444c-0.15,1.735-0.294,3.47-0.418,5.208H256.594z"/>
			<path style="fill:#455A64;" d="M308.278,259.708c0.093,2.09,0.234,4.177,0.376,6.263c0.138,1.849,0.282,3.697,0.454,5.543h0.491
				c-0.092-1.864-0.212-3.725-0.338-5.586c-0.155-2.086-0.312-4.171-0.515-6.253l-0.307-3.123c-0.125-1.039-0.228-2.08-0.372-3.118
				c0.005,1.048,0.05,2.093,0.074,3.14L308.278,259.708z"/>
		</g>
		<g>
			<path style="fill:#A26760;" d="M290.718,228.898v-5.649h-20.657v5.705l-7.618,3.136c3.946,16.54,18.014,15.768,18.014,15.768
				s14.068,0.771,18.014-15.768L290.718,228.898z"/>
			<path style="fill:#7B4B45;" d="M290.718,226.777v-3.529h-20.657v5.705l-0.02-1.21c1.846,1.573,5.317,4.875,10.775,4.896
				C285.178,232.656,288.49,229.116,290.718,226.777z"/>
		</g>
		<path style="fill:#A26760;" d="M299.582,193.652l0.965-8.501c0.021-0.175,0.043-0.348,0.06-0.524l0.015-0.136l-0.009,0
			c0.051-0.596,0.091-1.195,0.091-1.804c0-11.567-9.377-20.944-20.944-20.944c-11.567,0-20.944,9.377-20.944,20.944
			c0,0.262,0.03,0.517,0.039,0.776l-0.021-0.001l0.048,0.525c0.029,0.47,0.068,0.935,0.127,1.396l0.756,8.298
			c-0.181-0.016-0.363-0.029-0.548-0.029c-3.582,0-6.487,2.904-6.487,6.487c0,3.583,2.904,6.487,6.487,6.487
			c0.02,0,0.039-0.003,0.059-0.003c-0.035,0.484-0.059,0.971-0.059,1.464c0,11.146,9.036,20.182,20.182,20.182
			c11.147,0,20.182-9.036,20.182-20.182c0-0.493-0.025-0.98-0.062-1.464c0.021,0,0.041,0.003,0.062,0.003
			c3.582,0,6.487-2.904,6.487-6.487C306.069,196.556,303.165,193.652,299.582,193.652z"/>
		<path style="fill:#7B4B45;" d="M258.311,195.411c-0.999,0.407-1.875,1.057-2.476,1.88c-0.616,0.819-0.866,1.842-0.868,2.859
			c-0.019,1.027,0.245,2.045,0.823,2.878c0.588,0.826,1.493,1.449,2.52,1.776c-1.075-0.094-2.163-0.602-2.895-1.484
			c-0.74-0.878-1.071-2.052-1.057-3.171c0.008-1.119,0.335-2.303,1.106-3.153C256.202,196.131,257.246,195.592,258.311,195.411z"/>
		<path style="fill:#7B4B45;" d="M300.704,204.804c0.999-0.407,1.875-1.057,2.476-1.88c0.616-0.819,0.867-1.842,0.868-2.859
			c0.019-1.027-0.245-2.045-0.823-2.878c-0.588-0.826-1.493-1.449-2.521-1.776c1.075,0.094,2.163,0.602,2.895,1.484
			c0.74,0.878,1.07,2.052,1.057,3.171c-0.008,1.119-0.335,2.303-1.106,3.153C302.814,204.084,301.77,204.624,300.704,204.804z"/>
		<g>
			<path style="fill:#263238;" d="M277.166,194.162c-0.268,1.632-0.562,3.247-0.798,4.865c-0.221,1.618-0.448,3.234-0.489,4.839
				c-0.026,1.587,0.042,3.243,1.146,4.281c0.523,0.5,1.272,0.76,2.056,0.717c0.788,0.008,1.584-0.226,2.347-0.536
				c-0.668,0.492-1.456,0.831-2.309,0.982c-0.85,0.145-1.815-0.057-2.548-0.627c-0.742-0.551-1.177-1.42-1.382-2.28
				c-0.216-0.862-0.219-1.715-0.223-2.561c0.067-1.685,0.325-3.334,0.715-4.947C276.065,197.283,276.535,195.694,277.166,194.162z"
				/>
			<path style="fill:#263238;" d="M276.276,213.695c0.863,0.038,1.7,0.006,2.519-0.046c0.818-0.07,1.621-0.187,2.39-0.405
				c0.78-0.189,1.504-0.529,2.199-0.93c0.71-0.394,1.316-0.947,1.972-1.521c-0.36,0.773-0.841,1.557-1.558,2.101
				c-0.685,0.572-1.505,1.001-2.371,1.229C279.699,214.579,277.842,214.448,276.276,213.695z"/>
			<g>
				<g>
					<circle style="fill:#263238;" cx="270.174" cy="198.058" r="1.776"/>
					<path style="fill:#263238;" d="M266.908,194.678c-0.079-0.751,0.396-1.513,1.04-1.979c0.659-0.462,1.454-0.655,2.203-0.685
						c0.371-0.031,0.793,0.018,1.182,0.113c0.392,0.118,0.77,0.294,1.089,0.548c0.63,0.512,1.025,1.256,1.018,2.004
						c-0.486-0.551-1.007-0.938-1.54-1.175c-0.545-0.226-1.086-0.302-1.706-0.276c-0.628,0.016-1.231,0.087-1.792,0.29
						C267.849,193.721,267.314,194.071,266.908,194.678z"/>
					<path style="fill:#263238;" d="M265.474,187.624c1.346-0.276,4.046-0.689,7.846-0.591c0.455,0.012,0.756-0.402,0.525-0.728
						c-0.582-0.82-1.876-1.984-4.466-1.794c-2.929,0.215-4.107,1.523-4.576,2.438C264.611,187.322,265.001,187.721,265.474,187.624z
						"/>
				</g>
				<g>
					<path style="fill:#263238;" d="M287.075,198.058c0,0.981,0.795,1.777,1.777,1.777c0.981,0,1.776-0.795,1.776-1.777
						c0-0.981-0.795-1.777-1.776-1.777C287.87,196.281,287.075,197.077,287.075,198.058z"/>
					<path style="fill:#263238;" d="M292.117,194.678c0.079-0.751-0.396-1.513-1.04-1.979c-0.659-0.462-1.454-0.655-2.203-0.685
						c-0.371-0.031-0.793,0.018-1.182,0.113c-0.392,0.118-0.77,0.294-1.089,0.548c-0.63,0.512-1.026,1.256-1.018,2.004
						c0.486-0.551,1.007-0.938,1.54-1.175c0.545-0.226,1.086-0.302,1.706-0.276c0.628,0.016,1.231,0.087,1.792,0.29
						C291.177,193.721,291.711,194.071,292.117,194.678z"/>
					<path style="fill:#263238;" d="M293.057,187.624c-1.346-0.276-4.046-0.689-7.846-0.591c-0.455,0.012-0.756-0.402-0.525-0.728
						c0.582-0.82,1.876-1.984,4.466-1.794c2.929,0.215,4.107,1.523,4.576,2.438C293.92,187.322,293.53,187.721,293.057,187.624z"/>
				</g>
			</g>
		</g>
	</g>
</g>
</svg>
